<svg id="visual" viewBox="0 0 1920 1080" width="1920" height="1080" xmlns="http://www.w3.org/2000/svg" xmlns:xlink="http://www.w3.org/1999/xlink" version="1.1"><rect width="1920" height="1080" fill="#000000"></rect><g><g transform="translate(1596 374)"><path d="M0 -185.4L160.5 -92.7L160.5 92.7L0 185.4L-160.5 92.7L-160.5 -92.7Z" fill="none" stroke="#1e0e00" stroke-width="3"></path></g><g transform="translate(260 256)"><path d="M0 -123L106.5 -61.5L106.5 61.5L0 123L-106.5 61.5L-106.5 -61.5Z" fill="none" stroke="#1e0e00" stroke-width="3"></path></g><g transform="translate(211 706)"><path d="M0 -113L97.9 -56.5L97.9 56.5L0 113L-97.9 56.5L-97.9 -56.5Z" stroke="#1e0e00" fill="none" stroke-width="3"></path></g><g transform="translate(935 578)"><path d="M0 -72L62.4 -36L62.4 36L0 72L-62.4 36L-62.4 -36Z" stroke="#1e0e00" fill="none" stroke-width="3"></path></g><g transform="translate(769 949)"><path d="M0 -163L141.2 -81.5L141.2 81.5L0 163L-141.2 81.5L-141.2 -81.5Z" stroke="#1e0e00" fill="none" stroke-width="3"></path></g><g transform="translate(1345 1059)"><path d="M0 -183L158.5 -91.5L158.5 91.5L0 183L-158.5 91.5L-158.5 -91.5Z" stroke="#1e0e00" fill="none" stroke-width="3"></path></g><g transform="translate(655 122)"><path d="M0 -73L63.2 -36.5L63.2 36.5L0 73L-63.2 36.5L-63.2 -36.5Z" stroke="#1e0e00" fill="none" stroke-width="3"></path></g><g transform="translate(1812 878)"><path d="M0 -80L69.3 -40L69.3 40L0 80L-69.3 40L-69.3 -40Z" stroke="#1e0e00" fill="none" stroke-width="3"></path></g><g transform="translate(1706 5)"><path d="M0 -178L154.2 -89L154.2 89L0 178L-154.2 89L-154.2 -89Z" stroke="#1e0e00" fill="none" stroke-width="3"></path></g><g transform="translate(1295 41)"><path d="M0 -159L137.7 -79.5L137.7 79.5L0 159L-137.7 79.5L-137.7 -79.5Z" stroke="#1e0e00" fill="none" stroke-width="3"></path></g><g transform="translate(1365 669)"><path d="M0 -154L133.4 -77L133.4 77L0 154L-133.4 77L-133.4 -77Z" stroke="#1e0e00" fill="none" stroke-width="3"></path></g><g transform="translate(359 1061)"><path d="M0 -139L120.4 -69.5L120.4 69.5L0 139L-120.4 69.5L-120.4 -69.5Z" stroke="#1e0e00" fill="none" stroke-width="3"></path></g></g></svg>